<svg viewBox="0 0 43.39 33.38"><path d="M43.3 7.53l-5 15.55a2.65 2.65 0 01-2.54 1.85H16.23a2.78 2.78 0 01-2.6-1.71L6.18 3.69H1.89A1.87 1.87 0 010 1.85 1.87 1.87 0 011.89 0H7.5a1.93 1.93 0 011.79 1.25l7.69 20H34.9l4-12.47H16.7a1.85 1.85 0 110-3.69h24.81a1.89 1.89 0 011.49.77 1.79 1.79 0 01.3 1.67zM17.17 27.38a3.13 3.13 0 00-2.17.88 2.95 2.95 0 000 4.24 3.12 3.12 0 004.34 0 3 3 0 000-4.24 3.13 3.13 0 00-2.17-.88zm16.93 0a3.13 3.13 0 00-2.17.88 3 3 0 000 4.24 3.12 3.12 0 004.34 0 2.95 2.95 0 000-4.24 3.11 3.11 0 00-2.17-.88z"/></svg>