<svg viewBox="0 0 32.74 26.19"><path d="M26.55 2a2.1 2.1 0 00-2-2h-9.89c-.57.51-1.1 1.07-1.64 1.61-.83.81-1.64 1.64-2.49 2.44L1 13.48a2.91 2.91 0 00-.79 1 2.05 2.05 0 00.45 2.31c2.9 2.88 5.82 5.74 8.72 8.61a2.56 2.56 0 00.89.64 2.15 2.15 0 002.29-.44l14-13.83c-.01-3.28 0-6.54-.01-9.77zm-4.33 5.1a2.12 2.12 0 01-1.9 1.07 2.07 2.07 0 01-.51-4.07 2.13 2.13 0 012.42 1 2.06 2.06 0 01-.01 2zm9.4-.52a9.3 9.3 0 00-3-4v3a11.39 11.39 0 011.65 4.11 15.81 15.81 0 010 6.28 10.56 10.56 0 01-1.92 4.39 3.92 3.92 0 01-2.09 1.45 2.64 2.64 0 01-1.83-.25A5.79 5.79 0 0122.22 19l-1.55 1.5a7.37 7.37 0 003 2.9 4.71 4.71 0 003.4.27 6.15 6.15 0 002.9-2 11.52 11.52 0 002.17-4.39 17.38 17.38 0 00.59-4.81 16.52 16.52 0 00-1.11-5.89z"/></svg>