<svg class="svg-sprites" id="skin-sprite" xmlns="http://www.w3.org/2000/svg" xmlns:xlink="http://www.w3.org/1999/xlink">
    <symbol viewBox="0 0 43.39 33.38" id="z-cart"><path d="M43.3 7.53l-5 15.55a2.65 2.65 0 01-2.54 1.85H16.23a2.78 2.78 0 01-2.6-1.71L6.18 3.69H1.89A1.87 1.87 0 010 1.85 1.87 1.87 0 011.89 0H7.5a1.93 1.93 0 011.79 1.25l7.69 20H34.9l4-12.47H16.7a1.85 1.85 0 110-3.69h24.81a1.89 1.89 0 011.49.77 1.79 1.79 0 01.3 1.67zM17.17 27.38a3.13 3.13 0 00-2.17.88 2.95 2.95 0 000 4.24 3.12 3.12 0 004.34 0 3 3 0 000-4.24 3.13 3.13 0 00-2.17-.88zm16.93 0a3.13 3.13 0 00-2.17.88 3 3 0 000 4.24 3.12 3.12 0 004.34 0 2.95 2.95 0 000-4.24 3.11 3.11 0 00-2.17-.88z"/></symbol>
    <symbol viewBox="0 0 26.6 26.68" id="z-close"><path d="M3.19.18a.63.63 0 01.6-.18 1.21 1.21 0 01.56.36l9 9 9-9a.82.82 0 011.04-.21l3 3a.62.62 0 01.19.5 1.16 1.16 0 01-.38.72l-8.93 8.94 8.78 8.79a1.31 1.31 0 01.53.93.75.75 0 01-.31.56l-2.84 2.85a.71.71 0 01-.65.19 1.25 1.25 0 01-.65-.43l-8.83-8.84-9 9a.87.87 0 01-.83.28c-.19 0-.32-.2-.46-.33L.17 23.47a.82.82 0 01.16-1.13l9-9-9-9a.84.84 0 01-.19-1.1z"/></symbol>
    <symbol viewBox="0 0 32.74 26.19" id="z-cupon"><path d="M26.55 2a2.1 2.1 0 00-2-2h-9.89c-.57.51-1.1 1.07-1.64 1.61-.83.81-1.64 1.64-2.49 2.44L1 13.48a2.91 2.91 0 00-.79 1 2.05 2.05 0 00.45 2.31c2.9 2.88 5.82 5.74 8.72 8.61a2.56 2.56 0 00.89.64 2.15 2.15 0 002.29-.44l14-13.83c-.01-3.28 0-6.54-.01-9.77zm-4.33 5.1a2.12 2.12 0 01-1.9 1.07 2.07 2.07 0 01-.51-4.07 2.13 2.13 0 012.42 1 2.06 2.06 0 01-.01 2zm9.4-.52a9.3 9.3 0 00-3-4v3a11.39 11.39 0 011.65 4.11 15.81 15.81 0 010 6.28 10.56 10.56 0 01-1.92 4.39 3.92 3.92 0 01-2.09 1.45 2.64 2.64 0 01-1.83-.25A5.79 5.79 0 0122.22 19l-1.55 1.5a7.37 7.37 0 003 2.9 4.71 4.71 0 003.4.27 6.15 6.15 0 002.9-2 11.52 11.52 0 002.17-4.39 17.38 17.38 0 00.59-4.81 16.52 16.52 0 00-1.11-5.89z"/></symbol>
    <symbol viewBox="0 0 37.13 34.64" id="z-heart"><path d="M4.51 2c4.2-3.26 10.66-2.33 14 1.68A10.84 10.84 0 0126.15 0a10.64 10.64 0 0110.27 7 11.28 11.28 0 01-2.68 12c-5.08 5.2-10 10.58-15.19 15.65C13.16 29.33 8 23.78 2.75 18.32-1.54 13.72-.7 5.55 4.51 2zM3.35 7.22a8.58 8.58 0 001.54 9.65C9.42 21.63 14 26.32 18.56 31.1c4.51-4.78 9.13-9.47 13.66-14.24a8.59 8.59 0 001.53-9.67 8 8 0 00-10-4.08c-2.45.83-3.86 3.11-5.15 5.19-1.33-2.07-2.72-4.3-5.16-5.17A8 8 0 003.35 7.22z"/></symbol>
    <symbol viewBox="0 0 16.1 29.52" id="z-next"><path d="M0 2C.63 1.31 1.27.67 1.89 0 2.48.56 3 1.18 3.59 1.74c4.16 4.35 8.35 8.69 12.51 13-4.74 4.91-9.46 9.85-14.21 14.75-.62-.67-1.26-1.31-1.89-2q6.17-6.4 12.32-12.79L0 2z"/></symbol>
    <symbol viewBox="0 0 16.1 29.52" id="z-prev"><path d="M16.1 27.55c-.62.66-1.27 1.3-1.89 2-.59-.55-1.11-1.18-1.69-1.74Q6.27 21.26 0 14.75C4.74 9.84 9.46 4.9 14.21 0c.62.67 1.27 1.31 1.89 2Q10 8.37 3.78 14.76q6.15 6.41 12.32 12.79z"/></symbol>
    <symbol viewBox="0 0 27.29 27.25" id="z-search"><path d="M26.84 24.63L22 19.72A12.25 12.25 0 0012.23 0a12.25 12.25 0 107.5 21.91l4.88 4.88a1.42 1.42 0 001.08.46 1.65 1.65 0 001.11-.43 1.52 1.52 0 00.04-2.19zM3.09 12.23a9.15 9.15 0 119.14 9.14 9.13 9.13 0 01-9.14-9.14z"/></symbol>
    <symbol viewBox="0 0 19.35 27.95" id="z-select"><path d="M9.68 5.2q3.36 3 6.74 6l2.93-2.61L9.68 0 0 8.58l2.93 2.6C5.18 9.19 7.42 7.19 9.68 5.2zm0 17.55c-2.26-2-4.5-4-6.75-6L0 19.37 9.68 28l9.67-8.58-2.93-2.6Q13 19.76 9.68 22.75z"/></symbol>
    <symbol viewBox="0 0 34.34 24.32" id="z-truck"><path d="M34.34 11.7a.92.92 0 00-.16-.49L28.9 3.28a1 1 0 00-.78-.42H21a.94.94 0 00-1 .94v15.29a.94.94 0 001 .91h1.92a4.3 4.3 0 008.59 0h1.89a.94.94 0 00.94-.94V11.7zm-10-.26V5.72H28l3.81 5.72zm2.86 10.73A2.15 2.15 0 1129.33 20a2.14 2.14 0 01-2.14 2.17zM17.36 0H1.25A1.25 1.25 0 000 1.25v17.53A1.25 1.25 0 001.25 20h3a4.3 4.3 0 008.59 0h4.48a1.25 1.25 0 001.24-1.25V1.25A1.25 1.25 0 0017.36 0zM8.59 22.17A2.15 2.15 0 1110.73 20a2.14 2.14 0 01-2.14 2.17z"/></symbol>
    <symbol viewBox="0 0 42.26 42.26" id="z-user"><path d="M21.13 8.16a7.22 7.22 0 00-7.22 7.22c0 4 3.23 8.81 7.22 8.81s7.22-4.81 7.22-8.81a7.22 7.22 0 00-7.22-7.22zm19.46 4.75A21.12 21.12 0 1029.35 40.6a21.12 21.12 0 0011.24-27.69zm-5.92 21.94c-1.13-5.21-8.14-9.22-13.54-9.22s-12.4 4-13.54 9.22a19.27 19.27 0 1127.08 0z"/></symbol>
    <symbol viewBox="0 0 31.7 19.38" id="z-equal"><path d="M0 0v7.05h31.7V0zm0 19.38h31.7v-7H0z" fill-rule="evenodd"/></symbol>
    <symbol viewBox="0 0 31.55 31.55" id="z-more"><path fill-rule="evenodd" d="M31.55 12.27H19.28V0h-7.01v12.27H0v7.01h12.27v12.27h7.01V19.28h12.27v-7.01z"/></symbol>
</svg>