<svg xmlns="http://www.w3.org/2000/svg" viewBox="0 0 632.93 221.34">
    <path fill="var(--secundary)" d="M133.32,0c25.33.09,50.66,0,76,0-7.07,20.78-14.23,41.54-21.17,62.37Q160.76,31.2,133.32,0Z M239.56,0q43.92,0,87.84,0-26.11,76.86-52.23,153.73-43.94.08-87.86,0Q213.52,76.93,239.56,0Z M340.4,0c10,.06,20-.18,30,.19,9.6,0,19.38-.36,28.77,2.05,8.39,2.1,16.25,8.3,18.61,16.86,2.72,9.53-.28,19.64-4.62,28.2-7.66,14.82-22.1,25.12-37.72,30.22,3.91,1.5,8,3.13,10.86,6.3a27.06,27.06,0,0,1,6.82,17.83c.22,6.52-1.58,12.9-3.68,19-3.8,11-7.46,22.06-11.29,33.06q-45,0-90,0Q314.2,76.88,340.4,0Z M74.6,11.12C86.26,4,100,.91,113.59,1,132.32,22.48,151.21,43.79,170,65.17c5.82,6.49,11.73,13.58,13.58,22.33,1.86,10.15-1.18,20.51-6,29.4-12.56,22.71-38.16,37.86-64.24,36.8-7.21-5.7-13.5-12.48-20.49-18.46-8.23-8.1-16.82-15.87-24.2-24.79-9.06-10.57-18.5-21.22-24.08-34.13-3.54-8.06-2.8-17.19-.87-25.55C48,34.05,59.8,19.78,74.6,11.12Z M9.41,153.79C16.64,132.34,24,110.93,31.23,89.48q30,32.25,60.14,64.29C64.05,153.79,36.73,153.75,9.41,153.79Z"/>
    <path fill="var(--primary)" d="M447.34.11C481.15,0,515,.07,548.77.05q14.76,76.88,29.61,153.73-51.39,0-102.78,0c-8.69-46-17.2-92.06-25.83-138.09C448.93,10.5,447.46,5.4,447.34.11Z M563.73.05c23.07,0,46.13,0,69.2,0q-28.7,32.42-57.31,64.91C571.59,43.31,567.71,21.67,563.73.05Z M395,153.65c18.35-20.44,36.47-41.07,54.7-61.61,3.68,20.57,7.46,41.13,11.17,61.71C438.89,153.72,416.93,153.9,395,153.65Z"/>
    <path fill="var(--secundary-hover)" d="M152.17,168.28l3.39-.09c-.13.7-.4,2.09-.53,2.78,13.47.13,26.94.08,40.41,0,3,.24,4.19-3.78,7.47-3-1.65,5.56-3.63,11-5.48,16.49l-2.79.09c-.13-.62-.4-1.87-.53-2.5-4.83,0-9.66,0-14.49,0-3.78,11.48-7.86,22.87-11.59,34.37l2.35.61c-.31,1.07-.61,2.16-.9,3.25-6.43,0-12.86,0-19.3,0,.35-1.05.69-2.08,1-3.11,1.27-.79,3.18-1.12,3.57-2.81,3.83-10.74,7.3-21.61,11.13-32.35-4.21,0-8.42-.11-12.62,0-1.7-.21-2.59,1.43-3.7,2.39l-3,0C148.51,179.09,150.37,173.69,152.17,168.28Z M474.24,168.22l3.44,0c-.17.67-.5,2-.66,2.7,13.45.19,26.91.06,40.36.07,2.15.49,3.3-1.51,4.62-2.8l3,.06c-1.8,5.42-3.7,10.8-5.52,16.21l-2.72.07-.48-2.49c-4.85-.06-9.7,0-14.54,0-3.8,11.37-8,22.66-11.42,34.12l2.09,1.28c-.22.72-.66,2.16-.87,2.87q-9.68,0-19.34,0c.37-1.06.75-2.12,1.14-3.17,1.6-.77,3.46-1.56,3.84-3.52q5.4-15.78,10.74-31.59c-4.65,0-9.3,0-13.95,0-.73.82-1.44,1.63-2.15,2.46l-3.1-.05C470.57,179.06,472.47,173.66,474.24,168.22Z M235,170.41c7.4-.9,15.4.7,21.34,5.38,4.65,4.63,5.54,11.88,3.92,18-2.31,9-8.77,16.43-16.37,21.55-9.14,5.12-20.17,7.53-30.47,4.9-6.14-1.5-12-6-13.25-12.51-1.73-8.85,2.75-17.34,8-24.08,3-2.78,5.85-5.83,9.41-7.9A47.94,47.94,0,0,1,235,170.41ZM230.59,182a22.67,22.67,0,0,0-12.93,9c-2.24,3.71-4.46,8.11-3.23,12.55.57,2.68,2.86,4.57,5.21,5.72,11.75,4,25.25-5.4,27-17.38.27-2.72-.09-6-2.59-7.65C240.37,181,235.07,180.69,230.59,182Z M36.24,173.55c.3-.94.6-1.87.91-2.8,7,0,14,0,20.92,0-.36,1-.72,2-1.07,3-2,.93-4.2,2.53-3.28,5,2,10.5,4.36,20.94,6.43,31.43.67,2.73.63,6.59,4.22,7-.28.9-.56,1.81-.83,2.73-7.3,0-14.61,0-21.91,0,.3-1,.6-1.92.91-2.87,1.21-.51,2.42-1,3.61-1.58a42.11,42.11,0,0,0-.88-7.25q-10.47,0-21,0c-2.09,2.51-4.14,5.06-6,7.73l2.63,1c-.24.73-.71,2.2-.95,2.94-6.66,0-13.32,0-20,0,.25-.71.74-2.12,1-2.83a11.65,11.65,0,0,0,5.34-3.49c9.14-10.82,18.23-21.67,27.41-32.46a60.85,60.85,0,0,0,4.39-5.83Zm-4.47,25.94c3.84,0,7.68,0,11.52,0-.71-3.79-1.39-7.58-2.07-11.38C38.1,191.92,34.91,195.68,31.77,199.49Z M87.16,171c6.42,0,12.84,0,19.26,0-.3,1-.61,2-.91,3-1.34.83-3.33,1.16-3.76,2.93-2.81,7.75-5.28,15.61-8,23.39-.66,2.43-1.82,5.45,0,7.67,3,2.35,7,2.43,10.54,2.19,5.13-.36,10.75-2.82,12.55-8,3.52-8.85,6.34-18,9.34-27l-2.21-1.22.92-2.89h18.32l-1.08,3.17c-1,.42-2,.83-3,1.26-3.55,9-6.24,18.39-9.6,27.49-2.27,5.79-5.68,11.74-11.58,14.42-8.82,4.19-19,4.72-28.54,3.11-3.68-.87-7.8-2-10.06-5.25-2.31-4.08-1.25-8.91,0-13.12,2.9-9,6.15-17.9,9.05-26.91l-2.25-1.28C86.5,173,86.83,172,87.16,171Z M279.18,171.24c11.57.07,23.14-.15,34.71.1,4.32.64,9.7.51,12.6,4.35,2.06,2.51,2.25,6,1.4,9.07-1.72,6.54-6.71,12.49-13.37,14.31-9.31,3-19.2,1.69-28.79,2-1.66,5.13-3.56,10.18-5.18,15.33l2.32.89-1.09,3c-6.42,0-12.84,0-19.26,0,.34-1,.69-2,1.05-3,1.65-.77,3.52-1.59,3.91-3.6,4.34-12.69,8.81-25.36,12.87-38.14l-1.9-1.87C278.68,172.9,278.93,172.07,279.18,171.24ZM292.24,182q-1.46,4-2.74,8c5.95,0,11.91.11,17.86.12,3.9,0,7.29-3.56,6.44-7.53C306.67,181.46,299.42,182.28,292.24,182Z M358,173.38c.33-.88.66-1.75,1-2.61,7,0,14,0,21,0-.27.73-.81,2.19-1.07,2.92-1.87,1.09-4.35,2.69-3.33,5.24,2.41,11.85,4.82,23.71,7.37,35.54.13,1.78,1.94,2.23,3.3,2.87-.29.89-.57,1.79-.85,2.69-7.31,0-14.62,0-21.93,0l.92-2.88c1.29-.69,3.4-.75,3.65-2.56a37.08,37.08,0,0,0-.89-6.29c-7,0-13.92,0-20.87,0a67.66,67.66,0,0,0-6.06,7.86l2.65,1c-.36,1-.72,1.93-1.07,2.9-6.63,0-13.26,0-19.89,0,.22-.7.65-2.11.86-2.82a9.79,9.79,0,0,0,5.42-3.47c10.54-12.79,21.62-25.16,31.87-38.19Zm-4.39,26.16c3.83-.06,7.67,0,11.5,0-.62-3.8-1.38-7.58-2-11.37C360,192,356.81,195.74,353.64,199.54Z M409.62,171.27c12.91.07,25.84-.34,38.75.24,4,.3,9,1.38,10.56,5.58,2,5.32-.41,11.25-3.72,15.51-3.28,4.5-8.87,6.16-14,7.55,2.32,5.48,3.87,11.33,7.05,16.4l2.95.58-1.08,3.15c-7.48,0-15,.05-22.44,0,.23-.75.7-2.26.93-3l3-1.36c-1.49-5.07-3.64-9.9-5.39-14.86-3.35,0-6.7,0-10,0-1.82,5.08-3.51,10.21-5.19,15.34l2.24,1-1,2.91c-6.45,0-12.9,0-19.34,0,.38-1,.77-2,1.18-3,1.35-.8,3.27-1.25,3.64-3,4.47-12.95,8.79-25.95,13.27-38.9L408.74,174Zm13,10.78c-.9,2.65-1.78,5.31-2.66,8,6.14,0,12.28.06,18.41.12a6.76,6.76,0,0,0,6.82-7.42C437.78,181.3,430.15,182.35,422.64,182.05Z M531.89,179.31c7.19-7.48,18.32-9.81,28.33-8.78,5.69.32,10.81,3,15.87,5.39l2.21-1.26,2.38,1.72q-5.45,6.19-10.84,12.46l-2.29-1.25c.09-.51.27-1.54.37-2.05-6.26-4.9-15-5.49-22.42-3.45-2.68.66-4.63,2.67-6.16,4.85,4.88,2.47,10.53,1.82,15.8,2.48,4.44.58,9,1.21,13,3.41,5,3.4,4.79,10.8,1.7,15.41-4.39,7.59-13.1,11.4-21.47,12.52a46.12,46.12,0,0,1-25.64-3.33c-1.39-.88-2.87-.36-4.26.15l-2.41-1.19c3.44-4.43,6.88-8.86,10.28-13.31l2.22,1.2v2.28c5,3.61,11.57,4.24,17.6,4,4.64-.31,10.21-1.24,12.28-6.06-8.26-3.78-17.84-1.43-26.25-4.68a8.9,8.9,0,0,1-5.42-8.07C526.5,187,529.06,182.83,531.89,179.31Z"/>
</svg>